<?xml version="1.0" standalone="no"?>
<!DOCTYPE svg PUBLIC "-//W3C//DTD SVG 20010904//EN"
 "http://www.w3.org/TR/2001/REC-SVG-20010904/DTD/svg10.dtd">
<svg version="1.0" xmlns="http://www.w3.org/2000/svg"
 width="89.000000pt" height="89.000000pt" viewBox="0 0 89.000000 89.000000"
 preserveAspectRatio="xMidYMid meet">
<metadata>
Created by potrace 1.14, written by Peter Selinger 2001-2017
</metadata>
<g transform="translate(0.000000,89.000000) scale(0.100000,-0.100000)"
fill="#000000" stroke="none">
<path d="M329 870 c-116 -31 -188 -83 -256 -188 -44 -68 -62 -127 -70 -227 -6
-80 2 -104 10 -30 21 196 183 337 382 332 l55 -2 0 67 0 67 -28 -1 c-16 -1
-58 -9 -93 -18z"/>
<path d="M329 729 c-166 -25 -290 -167 -291 -333 -1 -194 150 -348 342 -348
180 0 327 138 343 321 l5 51 -33 0 c-32 0 -32 -1 -38 -55 -19 -190 -201 -302
-380 -235 -178 67 -234 298 -108 442 57 65 120 93 208 93 l73 0 0 33 c0 23 -5
32 -17 33 -10 1 -27 2 -38 3 -11 1 -41 -1 -66 -5z"/>
<path d="M474 689 c1 -26 8 -35 36 -50 68 -37 122 -101 140 -168 5 -19 13 -25
38 -26 32 -1 33 0 26 29 -19 95 -102 193 -192 229 -23 9 -44 17 -45 17 -2 0
-3 -14 -3 -31z"/>
<path d="M748 356 c-6 -65 -37 -141 -84 -203 -43 -57 -135 -110 -214 -123 -40
-7 -83 -10 -96 -7 -17 3 -22 1 -16 -5 6 -6 55 -9 119 -7 99 4 115 7 177 38
105 51 199 159 231 266 4 11 6 20 7 20 0 0 3 19 8 43 l7 42 -67 0 -67 0 -5
-64z"/>
</g>
</svg>
